<svg width="200" height="50" xmlns="http://www.w3.org/2000/svg">

  <!-- Chat bubble icon -->
  <path d="M10 25C10 12.3 21.3 1 34 1s24 11.3 24 24c0 7.5-3.5 14.2-8.9 18.5-.4.4-.9.7-1.4 1.1-.4.3-.9.5-1.4.7-.5.2-1 .3-1.6.3-1.8 0-3.5-.7-4.8-1.9l-6.5-6.5c-.4-.4-.9-.6-1.5-.6-.6 0-1.2.2-1.6.6l-6.5 6.5c-1.3 1.3-3 1.9-4.8 1.9-1.4 0-2.7-.4-3.9-1.1-.2-.1-.4-.2-.6-.3C5.2 39.3 1 32.2 1 24zm5 0c0 8.3 6.7 15 15 15s15-6.7 15-15-6.7-15-15-15-15 6.7-15 15z" fill="#61b2f9" />

  <!-- Company name text -->
  <text x="60" y="35" font-family="Arial, sans-serif" font-size="30" fill="#187ffa">Zango</text>

</svg>
